PathFileType	4	(X/Y/Z)	C:/Users/beibeiliu/ov580/test_trc/User3\sequence.36_training_dense_right.trc
DataRate	CameraRate	NumFrames	NumMarkers	Units	OrigDataRate	OrigDataStartFrame	OrigNumFrames
120	120	8	19	mm	120	61	91
Frame#	Time	ThumbCMC			ThumbMCP			ThumbIP			ThumbTip			IndexMCP			IndexPIP			IndexTip			MiddleMCP			MiddlePIP			MiddleTip			RingMCP			RingPIP			RingTip			PinkyMCP			PinkyPIP			PinkyTip			BackHand1			BackHand2			BackHand3	
		X0	Y0	Z0	X1	Y1	Z1	X2	Y2	Z2	X3	Y3	Z3	X4	Y4	Z4	X5	Y5	Z5	X6	Y6	Z6	X7	Y7	Z7	X8	Y8	Z8	X9	Y9	Z9	X10	Y10	Z10	X11	Y11	Z11	X12	Y12	Z12	X13	Y13	Z13	X14	Y14	Z14	X15	Y15	Z15	X16	Y16	Z16	X17	Y17	Z17	X18	Y18	Z18	
60	0.5	129.388	47.9956	-19.0704	111.884	54.3604	-44.1624	96.0159	59.4111	-69.4425	76.9492	55.3686	-86.8014	93.4123	23.8404	-85.2004	69.457	43.5212	-74.5983	88.7097	44.6943	-47.0057	82.8048	11.1324	-74.7912	60.6388	32.2997	-60.2227	89.8175	27.0896	-28.6748	69.6268	0.197058	-57.4464	59.1674	17.5158	-37.6959	87.2815	19.5747	-18.6487	68.2836	-13.4278	-41.3393	63.4591	12.168	-28.2969	84.3502	10.4494	-9.27636	121.832	-18.9083	-32.8138	135.886	-14.9502	-2.66823	142.503	11.0463	-30.4968	
61	0.508333	150.852	31.2882	-20.458	148.627	45.842	-46.6392	138.063	50.8294	-76.1571	120.607	50.8547	-91.3584	117.893	20.0724	-84.1526	100.58	50.3501	-84.6191	116.15	53.7818	-57.3728	94.2175	17.5906	-74.7661	88.841	51.8692	-69.0109	108.82	41.7968	-36.5564	82.709	19.1975	-62.2753	77.246	45.0876	-50.2805	98.5018	36.43	-23.7282	70.9949	15.6569	-47.3898	72.3487	38.1859	-35.2594	97.5155	26.7706	-14.7749	107.767	-17.104	-26.1988	119.486	-17.5512	4.7636	145.202	-3.30624	-22.8948	
62	0.516667	168.249	9.86399	-13.6353	168.666	18.6152	-42.3261	164.906	20.492	-75.2032	155.806	24.3834	-94.1803	137.275	-1.65043	-80.5793	130.34	27.8948	-91.7853	143.377	38.3221	-60.3669	114.972	4.89782	-81.7056	117.232	36.3133	-78.2635	127.948	27.0543	-39.2355	100.058	6.51145	-64.7526	104.92	38.1221	-58.1811	119.636	25.6267	-28.2606	85.4151	7.74455	-50.9144	95.8469	33.9791	-45.0565	112.271	21.8907	-21.6879	115.901	-26.7745	-19.8779	120.185	-26.525	12.4078	149.786	-21.1835	-15.6959	
63	0.525	182.879	-4.98664	-8.37964	184.687	-1.04901	-37.2458	187.641	-1.72811	-67.0931	180.27	-1.90411	-92.226	160.049	-26.2148	-75.2911	159.669	4.65583	-91.7902	158.981	16.3546	-59.6392	138.561	-22.3634	-76.1014	137.337	8.13924	-81.3698	144.546	7.11775	-38.1795	121.192	-18.9379	-63.7619	120.204	11.3127	-62.6779	133.048	9.08055	-32.5514	105.842	-16.2667	-52.0524	112.959	8.94307	-53.2805	125.493	8.93624	-23.9688	132.763	-46.8412	-16.5755	135.647	-39.1782	18.3351	168.617	-36.4981	-7.00843	
64	0.533333	195.913	-8.34179	2.65879	202.225	-8.89382	-33.0555	205.611	-8.83047	-59.1406	199.552	-16.1453	-84.4377	191.408	-42.2245	-67.3052	180.348	-13.3832	-86.6201	174.93	1.06658	-57.8866	168.289	-42.4615	-70.7941	155.608	-13.9009	-76.7316	163.812	-6.8183	-38.3312	146.886	-42.5074	-60.1845	137.661	-10.6098	-59.5248	149.959	-7.64723	-32.1504	131.351	-42.0982	-49.8342	130.33	-14.1815	-51.3189	138.589	-9.08993	-22.4843	157.211	-62.5516	-8.99251	156.697	-53.0185	24.5078	188.581	-44.6251	4.39866	
65	0.541667	206.173	-2.54043	2.28316	208.656	-3.65922	-28.708	216.389	-4.13341	-56.5913	213.08	-11.7464	-79.6218	216.241	-40.6674	-62.0316	194.323	-23.2529	-83.0736	184.031	-5.86661	-59.7893	191.814	-51.4918	-68.3596	174.386	-27.4887	-74.9697	176.47	-14.5436	-38.3102	177.005	-53.9299	-58.5667	159.571	-29.5388	-60.7774	167.392	-19.7999	-29.3901	160.765	-60.4772	-48.2085	148.62	-34.8769	-48.4205	156.199	-25.937	-24.134	190.151	-66.8497	-0.701092	184.33	-54.2579	29.3544	212.63	-42.2348	8.03242	
66	0.55	204.56	10.126	-0.52722	206.829	11.1442	-30.4824	216.565	11.5334	-61.7601	216.385	0.971299	-82.1216	230.758	-22.0909	-65.3158	208.961	-12.6428	-85.8851	187.87	-3.01853	-57.0866	218.94	-40.0168	-65.1664	189.454	-27.8399	-75.7546	184.741	-18.4297	-35.6604	202.644	-52.5119	-60.5046	175.033	-37.4536	-59.3328	177.115	-24.9526	-31.1455	194.05	-65.3817	-48.5387	173.387	-49.7772	-53.1225	170.867	-36.7596	-22.9045	222.321	-57.8875	-3.40302	208.496	-48.5974	26.0804	225.804	-20.3982	9.18109	
67	0.558333	193.05	23.2695	-3.53833	195.255	26.1798	-34.6969	203.6	26.5986	-64.3594	205.838	23.078	-86.3738	231.816	8.20011	-68.7757	205.022	4.91297	-86.9536	187.124	0.419649	-58.8507	227.535	-10.7029	-72.4928	198.984	-17.8608	-78.6881	189.377	-13.314	-40.832	226.215	-32.4093	-60.3288	194.858	-33.3326	-66.0824	187.139	-23.7516	-34.7738	222.548	-49.9889	-52.062	193.737	-41.2948	-55.7568	187.069	-35.4243	-28.5923	240.863	-25.5935	-5.262	226.827	-28.6437	25.1262	228.438	8.99225	3.15938	
